<svg width="128" height="128" viewBox="0 0 128 128" fill="none" xmlns="http://www.w3.org/2000/svg">
<g clip-path="url(#clip0_11_90)">
<path d="M106.88 128H21.12C9.472 128 0 118.528 0 106.88V21.12C0 9.472 9.472 0 21.12 0H106.88C118.528 0 128 9.472 128 21.12V106.88C128 118.528 118.528 128 106.88 128Z" fill="#5979C1"/>
<path d="M45.504 85.632C36.48 89.344 21.248 89.92 20.48 89.92C19.712 89.92 12.608 92.8 12.608 92.8L39.488 128H106.88C118.528 128 128 118.528 128 106.88V66.112L110.72 43.52L87.296 39.872L64.448 35.136H60.224C60.224 35.136 33.472 38.08 30.528 38.08C27.584 38.08 20.736 45.888 20.16 48.064C19.584 50.24 21.696 58.624 23.488 60.608C25.28 62.592 39.552 63.168 46.4 65.472C53.248 67.84 52.672 70.976 53.44 73.472C54.272 76.032 54.464 81.92 45.504 85.632Z" fill="#355D8C"/>
<path d="M43.7119 58.432H39.7439H37.3759H29.6959C26.3039 58.432 23.5519 55.68 23.5519 52.288C23.5519 48.896 26.3039 46.144 29.6959 46.144H54.7839L60.2879 35.136H29.6959C20.2239 35.136 12.5439 42.816 12.5439 52.288C12.5439 61.76 20.2239 69.44 29.6959 69.44H37.3119H39.6799H43.6479C47.0399 69.44 49.7919 72.192 49.7919 75.584C49.7919 78.976 47.0399 81.728 43.6479 81.728H23.6159V75.584H12.5439V92.8H43.7119C53.1839 92.8 60.8639 85.12 60.8639 75.648C60.8639 66.176 53.1839 58.432 43.7119 58.432Z" fill="white"/>
<path d="M115.456 57.088C115.456 44.992 105.6 35.136 93.5039 35.136H64.5759V92.864H75.5839V46.208H93.5039C99.5199 46.208 104.448 51.136 104.448 57.152C104.448 63.168 99.5199 68.096 93.5039 68.096H93.3119H79.8719L98.7519 92.8H111.296H112.192L100.736 77.824C109.312 74.816 115.456 66.688 115.456 57.088Z" fill="white"/>
</g>
<defs>
<clipPath id="clip0_11_90">
<rect width="128" height="128" fill="white"/>
</clipPath>
</defs>
</svg>
